<svg width="18" height="18" viewBox="0 0 18 18" fill="none" xmlns="http://www.w3.org/2000/svg">
<path d="M1.00098 0H17.001C17.2662 0 17.5205 0.105357 17.7081 0.292893C17.8956 0.48043 18.001 0.734784 18.001 1V17C18.001 17.2652 17.8956 17.5196 17.7081 17.7071C17.5205 17.8946 17.2662 18 17.001 18H1.00098C0.73576 18 0.481406 17.8946 0.29387 17.7071C0.106334 17.5196 0.000976563 17.2652 0.000976562 17V1C0.000976562 0.734784 0.106334 0.48043 0.29387 0.292893C0.481406 0.105357 0.73576 0 1.00098 0ZM2.00098 2V16H16.001V2H2.00098ZM4.50098 6C4.10315 6 3.72162 5.84196 3.44032 5.56066C3.15901 5.27936 3.00098 4.89782 3.00098 4.5C3.00098 4.10218 3.15901 3.72064 3.44032 3.43934C3.72162 3.15804 4.10315 3 4.50098 3C4.8988 3 5.28033 3.15804 5.56164 3.43934C5.84294 3.72064 6.00098 4.10218 6.00098 4.5C6.00098 4.89782 5.84294 5.27936 5.56164 5.56066C5.28033 5.84196 4.8988 6 4.50098 6ZM3.50098 7H5.50098V14.5H3.50098V7ZM9.00098 7.43C9.58498 6.865 10.267 6.5 11.001 6.5C13.072 6.5 14.501 8.179 14.501 10.25V14.5H12.501V10.25C12.501 9.78587 12.3166 9.34075 11.9884 9.01256C11.6602 8.68437 11.2151 8.5 10.751 8.5C10.2868 8.5 9.84173 8.68437 9.51354 9.01256C9.18535 9.34075 9.00098 9.78587 9.00098 10.25V14.5H7.00098V7H9.00098V7.43Z" fill="black"/>
</svg>
