<svg width="426" height="426" viewBox="0 0 426 426" fill="none" xmlns="http://www.w3.org/2000/svg">
<path d="M213 0C330.637 0 426 95.3633 426 213C426 330.637 330.637 426 213 426C95.3633 426 0 330.637 0 213C0 95.3633 95.3633 0 213 0ZM213 25C109.17 25 25 109.17 25 213C25 316.83 109.17 401 213 401C316.83 401 401 316.83 401 213C401 109.17 316.83 25 213 25Z" fill="#F2E0E0"/>
<path d="M145.658 294.225C130.178 294.225 116.991 290.857 106.098 284.12C95.2042 277.312 86.855 267.852 81.05 255.74C75.3167 243.628 72.45 229.582 72.45 213.6C72.45 197.618 75.3167 183.572 81.05 171.46C86.855 159.348 95.2042 149.924 106.098 143.187C116.991 136.379 130.178 132.975 145.658 132.975C161.066 132.975 174.217 136.379 185.11 143.187C196.075 149.924 204.424 159.348 210.158 171.46C215.891 183.572 218.758 197.618 218.758 213.6C218.758 229.582 215.891 243.628 210.158 255.74C204.424 267.852 196.075 277.312 185.11 284.12C174.217 290.857 161.066 294.225 145.658 294.225ZM145.658 272.832C156.623 272.976 165.724 270.575 172.963 265.63C180.273 260.613 185.755 253.662 189.41 244.775C193.065 235.817 194.893 225.425 194.893 213.6C194.893 201.775 193.065 191.455 189.41 182.64C185.755 173.753 180.273 166.837 172.963 161.892C165.724 156.947 156.623 154.439 145.658 154.367C134.693 154.224 125.555 156.625 118.245 161.57C111.007 166.515 105.56 173.467 101.905 182.425C98.25 191.383 96.3867 201.775 96.315 213.6C96.2433 225.425 98.035 235.781 101.69 244.667C105.345 253.482 110.828 260.362 118.138 265.307C125.519 270.252 134.693 272.761 145.658 272.832ZM277.795 291V159.863H227.26V139.08H350.379V159.863H299.844V291H277.795Z" fill="#F2E0E0"/>
</svg>
